<svg width="27" height="22" viewBox="0 0 27 22" fill="none" xmlns="http://www.w3.org/2000/svg">
<path fill-rule="evenodd" clip-rule="evenodd" d="M0.9 0C0.402944 0 0 0.402944 0 0.9C0 1.39706 0.402944 1.8 0.9 1.8H2.26138C2.72986 1.8 3.14694 2.09672 3.30056 2.53929L7.2398 13.8881C7.64481 15.0549 8.74437 15.8371 9.97945 15.8371H21.0337C22.2426 15.8371 23.3246 15.0873 23.7491 13.9554L26.7427 5.97239C26.9172 5.50698 26.6814 4.98821 26.216 4.81368C25.7506 4.63916 25.2318 4.87496 25.0573 5.34037L22.0637 13.3234C21.9027 13.7527 21.4922 14.0371 21.0337 14.0371H9.97945C9.51097 14.0371 9.0939 13.7404 8.94028 13.2978L5.00103 1.94905C4.59603 0.782254 3.49646 0 2.26138 0H0.9ZM11.1508 19.6194C11.1508 20.5484 10.3977 21.3015 9.46866 21.3015C8.53965 21.3015 7.78653 20.5484 7.78653 19.6194C7.78653 18.6904 8.53965 17.9373 9.46866 17.9373C10.3977 17.9373 11.1508 18.6904 11.1508 19.6194ZM23.3318 19.6194C23.3318 20.5484 22.5787 21.3015 21.6497 21.3015C20.7206 21.3015 19.9675 20.5484 19.9675 19.6194C19.9675 18.6904 20.7206 17.9373 21.6497 17.9373C22.5787 17.9373 23.3318 18.6904 23.3318 19.6194Z" fill="black"/>
</svg>
