<svg width="32" height="27" viewBox="0 0 32 27" fill="none" xmlns="http://www.w3.org/2000/svg">
<path fill-rule="evenodd" clip-rule="evenodd" d="M22.5957 0.0378C27.065 -0.412182 31.5824 3.19741 30.9412 8.6206C30.7746 10.0297 30.047 11.5369 29.0779 13.0264C28.0966 14.5345 26.8036 16.1196 25.394 17.6966C23.6656 19.6306 21.6896 21.6281 19.8547 23.483C18.7329 24.6171 17.6637 25.698 16.736 26.6784C16.7286 26.6864 16.7211 26.6943 16.7134 26.7021C16.3255 27.0952 15.6923 27.0995 15.2992 26.7116C14.3022 25.7278 13.1531 24.6437 11.9476 23.5062C9.9822 21.6518 7.86649 19.6556 6.01481 17.722C4.50527 16.1456 3.12029 14.561 2.06898 13.053C1.03227 11.566 0.247062 10.0523 0.0667528 8.62895C-0.630991 3.1212 4.266 -0.400335 8.92263 0.037251C11.3074 0.261352 13.2907 1.53737 14.6325 2.67963C15.1748 3.14129 15.6273 3.5938 15.9758 3.97155C16.2985 3.59845 16.7141 3.15483 17.2104 2.70216C18.4622 1.56042 20.3317 0.265751 22.5957 0.0378ZM16.7014 6.26891C16.7539 6.21767 16.7997 6.1616 16.8387 6.10193L16.8512 6.08403C16.8686 6.05936 16.8962 6.02074 16.9336 5.97007C17.0085 5.86863 17.1222 5.7194 17.2716 5.53733C17.5712 5.17203 18.009 4.68077 18.5582 4.17982C19.6774 3.15907 21.1551 2.19296 22.7961 2.02774C26.1369 1.69138 29.4296 4.37264 28.955 8.38576C28.8427 9.33578 28.3151 10.5316 27.4015 11.9357C26.5 13.3212 25.2826 14.8201 23.9028 16.3639C22.1927 18.2772 20.3054 20.1839 18.5076 22.0001C17.6327 22.8839 16.7789 23.7465 15.9771 24.5779C15.1116 23.7398 14.1887 22.8696 13.2424 21.9773C11.3155 20.1605 9.29182 18.2524 7.45931 16.3387C5.9803 14.7942 4.67559 13.2948 3.70963 11.9092C2.72908 10.5028 2.16944 9.31337 2.05089 8.37759C1.55321 4.44905 5.02417 1.67972 8.73551 2.02848C10.5347 2.19755 12.1376 3.18231 13.3361 4.20254C13.9266 4.70522 14.3967 5.1977 14.7181 5.56336C14.8783 5.74569 15.0004 5.89509 15.0806 5.9966C15.1208 6.04732 15.1504 6.08597 15.169 6.11066L15.1849 6.1319C15.2145 6.17372 15.2475 6.21356 15.2839 6.25097C15.3847 6.35514 15.5045 6.43347 15.6337 6.48444C15.74 6.52661 15.851 6.54939 15.9619 6.55368C16.1354 6.56069 16.3117 6.52274 16.4722 6.43687C16.5551 6.39278 16.6324 6.33661 16.7014 6.26891Z" fill="white"/>
</svg>
