<svg width="20" height="21" viewBox="0 0 20 21" fill="none" xmlns="http://www.w3.org/2000/svg">
<path fill-rule="evenodd" clip-rule="evenodd" d="M13.5159 15.8904C12.0944 17.0123 10.2994 17.6818 8.34809 17.6818C3.73757 17.6818 0 13.9442 0 9.33369C0 4.72316 3.73757 0.985596 8.34809 0.985596C12.9586 0.985596 16.6962 4.72316 16.6962 9.33369C16.6962 11.2851 16.0267 13.0801 14.9048 14.5015L19.7123 19.309C20.0959 19.6926 20.0959 20.3144 19.7123 20.698C19.3288 21.0815 18.7069 21.0815 18.3234 20.698L13.5159 15.8904ZM14.7319 9.33369C14.7319 12.8594 11.8738 15.7175 8.34809 15.7175C4.8224 15.7175 1.96426 12.8594 1.96426 9.33369C1.96426 5.80799 4.8224 2.94985 8.34809 2.94985C11.8738 2.94985 14.7319 5.80799 14.7319 9.33369Z" fill="#878787"/>
</svg>
