<svg width="26" height="26" viewBox="0 0 26 26" fill="none" xmlns="http://www.w3.org/2000/svg">
<path fill-rule="evenodd" clip-rule="evenodd" d="M16.239 13.0342C18.2068 11.8595 19.5247 9.70906 19.5247 7.25079C19.5247 3.53349 16.5112 0.52002 12.7939 0.52002C9.07659 0.52002 6.06312 3.53349 6.06312 7.25079C6.06312 9.71882 7.39147 11.8766 9.37222 13.0482C7.24801 13.6391 5.29094 14.7699 3.70438 16.3565C1.63441 18.4264 0.340158 21.1271 0.00870809 24.0068C-0.0799749 24.7773 0.520299 25.4152 1.28033 25.4779C1.36166 25.4846 1.44306 25.471 1.52121 25.4475C8.89795 23.2301 16.7638 23.2301 24.1406 25.4475C24.2187 25.471 24.3001 25.4846 24.3814 25.4779C25.1415 25.4152 25.7417 24.7773 25.6531 24.0068C25.3216 21.1271 24.0273 18.4264 21.9574 16.3565C20.3583 14.7574 18.3827 13.6212 16.239 13.0342ZM18.0454 7.25079C18.0454 10.1511 15.6942 12.5023 12.7939 12.5023C9.89358 12.5023 7.54241 10.1511 7.54241 7.25079C7.54241 4.35048 9.89358 1.99931 12.7939 1.99931C15.6942 1.99931 18.0454 4.35048 18.0454 7.25079ZM20.9114 17.4025C22.6797 19.1708 23.8087 21.4591 24.1494 23.9079C16.7551 21.7709 8.90661 21.7709 1.51236 23.9079C1.85309 21.4591 2.98207 19.1708 4.7504 17.4025C6.89348 15.2594 9.80011 14.0555 12.8309 14.0555C15.8617 14.0555 18.7683 15.2594 20.9114 17.4025Z" fill="white"/>
</svg>
