<svg width="26" height="26" viewBox="0 0 26 26" fill="none" xmlns="http://www.w3.org/2000/svg">
<path fill-rule="evenodd" clip-rule="evenodd" d="M16.2617 13.0342C18.2295 11.8595 19.5474 9.70906 19.5474 7.25079C19.5474 3.53349 16.5339 0.52002 12.8166 0.52002C9.0993 0.52002 6.08583 3.53349 6.08583 7.25079C6.08583 9.71882 7.41417 11.8766 9.39492 13.0482C7.27071 13.6391 5.31364 14.7699 3.72709 16.3565C1.65712 18.4264 0.362863 21.1271 0.0314132 24.0068C-0.0572699 24.7773 0.543005 25.4152 1.30303 25.4779C1.38436 25.4846 1.46576 25.471 1.54391 25.4475C8.92065 23.2301 16.7865 23.2301 24.1633 25.4475C24.2414 25.471 24.3228 25.4846 24.4041 25.4779C25.1642 25.4152 25.7644 24.7773 25.6758 24.0068C25.3443 21.1271 24.0501 18.4264 21.9801 16.3565C20.381 14.7574 18.4054 13.6212 16.2617 13.0342ZM18.0681 7.25079C18.0681 10.1511 15.7169 12.5023 12.8166 12.5023C9.91629 12.5023 7.56512 10.1511 7.56512 7.25079C7.56512 4.35048 9.91629 1.99931 12.8166 1.99931C15.7169 1.99931 18.0681 4.35048 18.0681 7.25079ZM20.9341 17.4025C22.7024 19.1708 23.8314 21.4591 24.1721 23.9079C16.7779 21.7709 8.92932 21.7709 1.53507 23.9079C1.8758 21.4591 3.00478 19.1708 4.7731 17.4025C6.91618 15.2594 9.82282 14.0555 12.8536 14.0555C15.8844 14.0555 18.791 15.2594 20.9341 17.4025Z" fill="black"/>
</svg>
