<svg width="40" height="50" viewBox="0 0 40 50" fill="none" xmlns="http://www.w3.org/2000/svg">
<circle cx="19.8072" cy="11.7862" r="9.78619" stroke="#F5F5F5" stroke-width="4"/>
<path d="M0.849856 17.1138C0.66046 14.2296 2.94876 11.7861 5.83911 11.7861H33.7744C36.665 11.7861 38.9534 14.23 38.7637 17.1143L36.9173 45.1846C36.7444 47.8129 34.5621 49.8564 31.9281 49.8564H7.68243C5.04819 49.8564 2.86579 47.8126 2.69317 45.184L0.849856 17.1138Z" fill="#F5F5F5"/>
<path d="M7.48453 36C7.3232 36 7.1912 35.9487 7.08853 35.846C6.98586 35.7433 6.93453 35.6113 6.93453 35.45V21.15C6.93453 20.9887 6.98586 20.8567 7.08853 20.754C7.1912 20.6513 7.3232 20.6 7.48453 20.6H13.4685C15.3605 20.6 16.8492 21.04 17.9345 21.92C19.0345 22.7853 19.5845 24.0173 19.5845 25.616C19.5845 26.6573 19.3279 27.5373 18.8145 28.256C18.3159 28.9747 17.6559 29.5173 16.8345 29.884L19.8705 35.296C19.9145 35.384 19.9365 35.4647 19.9365 35.538C19.9365 35.6553 19.8852 35.7653 19.7825 35.868C19.6945 35.956 19.5845 36 19.4525 36H16.5485C16.2699 36 16.0645 35.934 15.9325 35.802C15.8005 35.6553 15.7052 35.5233 15.6465 35.406L13.1385 30.566H10.8725V35.45C10.8725 35.6113 10.8212 35.7433 10.7185 35.846C10.6159 35.9487 10.4839 36 10.3225 36H7.48453ZM10.8725 27.464H13.4245C14.1139 27.464 14.6272 27.2953 14.9645 26.958C15.3165 26.6207 15.4925 26.1587 15.4925 25.572C15.4925 25 15.3239 24.538 14.9865 24.186C14.6639 23.834 14.1432 23.658 13.4245 23.658H10.8725V27.464Z" fill="#0F0F0F"/>
<path d="M27.4988 40.92C26.0321 40.92 24.8148 40.7146 23.8468 40.304C22.8788 39.8786 22.1455 39.3286 21.6468 38.654C21.1481 37.9793 20.8841 37.2606 20.8548 36.498C20.8548 36.3806 20.8988 36.278 20.9868 36.19C21.0895 36.0873 21.2068 36.036 21.3388 36.036H24.1108C24.3161 36.036 24.4701 36.0726 24.5728 36.146C24.6901 36.2193 24.7928 36.3146 24.8808 36.432C24.9981 36.652 25.1595 36.8646 25.3648 37.07C25.5848 37.2753 25.8635 37.444 26.2008 37.576C26.5528 37.6933 26.9855 37.752 27.4988 37.752C28.3495 37.752 28.9875 37.62 29.4128 37.356C29.8528 37.092 30.0728 36.7326 30.0728 36.278C30.0728 35.9553 29.9555 35.6913 29.7208 35.486C29.4861 35.266 29.1048 35.0753 28.5768 34.914C28.0635 34.738 27.3741 34.562 26.5088 34.386C25.3941 34.1513 24.4408 33.8506 23.6488 33.484C22.8715 33.1026 22.2775 32.6113 21.8668 32.01C21.4561 31.394 21.2508 30.6313 21.2508 29.722C21.2508 28.8273 21.5001 28.028 21.9988 27.324C22.5121 26.62 23.2235 26.07 24.1328 25.674C25.0421 25.278 26.1201 25.08 27.3668 25.08C28.3788 25.08 29.2661 25.212 30.0288 25.476C30.8061 25.74 31.4588 26.092 31.9868 26.5319C32.5148 26.972 32.9108 27.4413 33.1748 27.94C33.4535 28.424 33.6001 28.9006 33.6148 29.37C33.6148 29.4873 33.5708 29.5973 33.4828 29.7C33.3948 29.788 33.2848 29.832 33.1528 29.832H30.2488C30.0875 29.832 29.9481 29.8026 29.8308 29.744C29.7135 29.6853 29.6108 29.59 29.5228 29.458C29.4348 29.1353 29.2001 28.8566 28.8188 28.622C28.4521 28.3726 27.9681 28.248 27.3668 28.248C26.7215 28.248 26.2155 28.3653 25.8488 28.6C25.4968 28.82 25.3208 29.1646 25.3208 29.634C25.3208 29.9273 25.4161 30.184 25.6068 30.404C25.8121 30.624 26.1421 30.8146 26.5968 30.976C27.0661 31.1373 27.7041 31.306 28.5108 31.482C29.8455 31.7313 30.9235 32.0466 31.7448 32.428C32.5661 32.7946 33.1675 33.2786 33.5488 33.88C33.9301 34.4666 34.1208 35.2073 34.1208 36.102C34.1208 37.0993 33.8348 37.9646 33.2628 38.698C32.7055 39.4166 31.9281 39.9666 30.9308 40.348C29.9335 40.7293 28.7895 40.92 27.4988 40.92Z" fill="#0F0F0F"/>
</svg>
