<svg width="32" height="19" viewBox="0 0 32 19" fill="none" xmlns="http://www.w3.org/2000/svg">
<path fill-rule="evenodd" clip-rule="evenodd" d="M27.8814 7.77619C27.4429 7.77619 27.0627 7.70821 26.7407 7.57225C26.4255 7.42948 26.1823 7.21194 26.011 6.91962C25.8397 6.6205 25.7541 6.2364 25.7541 5.76733V3.80945H24.9525C24.8771 3.80945 24.812 3.78566 24.7572 3.73807C24.7092 3.69049 24.6853 3.6293 24.6853 3.55452V2.72854C24.6853 2.65376 24.7092 2.59258 24.7572 2.54499C24.812 2.49741 24.8771 2.47361 24.9525 2.47361H25.7541V0.791064C25.7541 0.716284 25.778 0.655101 25.826 0.607514C25.8808 0.559927 25.9425 0.536133 26.011 0.536133H27.2031C27.2785 0.536133 27.3401 0.559927 27.3881 0.607514C27.4361 0.655101 27.46 0.716284 27.46 0.791064V2.47361H28.7447C28.82 2.47361 28.8817 2.49741 28.9296 2.54499C28.9776 2.59258 29.0016 2.65376 29.0016 2.72854V3.55452C29.0016 3.6293 28.9776 3.69049 28.9296 3.73807C28.8817 3.78566 28.82 3.80945 28.7447 3.80945H27.46V5.62457C27.46 5.85571 27.5046 6.03926 27.5936 6.17522C27.6827 6.31118 27.8334 6.37917 28.0458 6.37917H28.8371C28.9125 6.37917 28.9742 6.40296 29.0221 6.45055C29.0701 6.49813 29.0941 6.55932 29.0941 6.6341V7.52126C29.0941 7.59604 29.0701 7.65722 29.0221 7.70481C28.9742 7.7524 28.9125 7.77619 28.8371 7.77619H27.8814ZM0.0719386 7.70481C0.119898 7.7524 0.181559 7.77619 0.256923 7.77619H1.58265C1.65801 7.77619 1.71967 7.7524 1.76763 7.70481C1.81559 7.65722 1.83957 7.59604 1.83957 7.52126V5.25747H2.89809L4.06966 7.50086C4.09707 7.55525 4.1416 7.61643 4.20326 7.68441C4.26493 7.7456 4.36084 7.77619 4.49102 7.77619H5.84757C5.90924 7.77619 5.96062 7.7558 6.00173 7.71501C6.04969 7.66742 6.07367 7.61643 6.07367 7.56205C6.07367 7.52806 6.06339 7.49067 6.04284 7.44988L4.62462 4.94135C5.00829 4.7714 5.3166 4.51986 5.54954 4.18675C5.78934 3.85364 5.90924 3.44575 5.90924 2.96308C5.90924 2.22208 5.65231 1.65103 5.13847 1.24994C4.63147 0.842051 3.93606 0.638105 3.05225 0.638105H0.256923C0.181559 0.638105 0.119898 0.661899 0.0719386 0.709486C0.0239795 0.757074 0 0.818257 0 0.893037V7.52126C0 7.59604 0.0239795 7.65722 0.0719386 7.70481ZM3.03169 3.81965H1.83957V2.05552H3.03169C3.36741 2.05552 3.61063 2.1371 3.76136 2.30026C3.91894 2.46342 3.99773 2.67756 3.99773 2.94269C3.99773 3.21461 3.91551 3.42876 3.75108 3.58511C3.5935 3.74147 3.35371 3.81965 3.03169 3.81965ZM7.45664 7.22554C7.93623 7.66062 8.58025 7.87816 9.3887 7.87816C9.80663 7.87816 10.1732 7.82718 10.4883 7.7252C10.8035 7.62323 11.0638 7.49407 11.2694 7.33771C11.4818 7.17455 11.6428 7.0114 11.7524 6.84824C11.862 6.68508 11.9202 6.54572 11.9271 6.43015C11.934 6.36217 11.9134 6.31118 11.8654 6.27719C11.8243 6.2364 11.7695 6.21601 11.701 6.21601H10.4267C10.3445 6.21601 10.2828 6.22621 10.2417 6.2466C10.2074 6.2602 10.1595 6.30099 10.0978 6.36897C10.0635 6.40976 10.0156 6.46074 9.95393 6.52193C9.89227 6.57631 9.81348 6.6273 9.71756 6.67489C9.62849 6.71568 9.51545 6.73607 9.37842 6.73607C9.19344 6.73607 9.03586 6.68848 8.90568 6.59331C8.77551 6.49813 8.67959 6.36897 8.61793 6.20581C8.55627 6.04266 8.52201 5.8625 8.51516 5.66536V5.62457V5.59398H11.8038C11.8723 5.59398 11.9305 5.57018 11.9785 5.52259C12.0333 5.47501 12.0607 5.41382 12.0607 5.33904V5.09431C12.0607 4.57085 11.9614 4.10518 11.7627 3.69728C11.564 3.28939 11.266 2.96648 10.8686 2.72854C10.4781 2.49061 9.98133 2.37164 9.37842 2.37164C8.85087 2.37164 8.38841 2.47361 7.99104 2.67756C7.60051 2.87471 7.2922 3.16703 7.06611 3.55452C6.84687 3.93522 6.72697 4.3941 6.70642 4.93115V5.10451V5.28806C6.72697 6.14463 6.97705 6.79045 7.45664 7.22554ZM10.252 4.58445H8.51516V4.56405C8.51516 4.34651 8.54942 4.15616 8.61793 3.99301C8.68644 3.82985 8.78236 3.70408 8.90568 3.61571C9.03586 3.52733 9.19344 3.48314 9.37842 3.48314C9.56341 3.48314 9.72099 3.52733 9.85116 3.61571C9.98819 3.70408 10.0875 3.82985 10.1492 3.99301C10.2177 4.15616 10.252 4.34651 10.252 4.56405V4.58445ZM14.6274 7.87816C14.2574 7.87816 13.9251 7.81018 13.6305 7.67422C13.3427 7.53146 13.1132 7.34111 12.9419 7.10317C12.7707 6.86523 12.685 6.59671 12.685 6.29759C12.685 5.81492 12.8837 5.43422 13.2811 5.15549C13.6785 4.86997 14.206 4.67622 14.8637 4.57425L16.1483 4.3805V4.23774C16.1483 3.99301 16.097 3.80606 15.9942 3.67689C15.8914 3.54772 15.703 3.48314 15.429 3.48314C15.2371 3.48314 15.0795 3.52053 14.9562 3.59531C14.8398 3.67009 14.7473 3.77206 14.6787 3.90123C14.6171 3.98961 14.5314 4.03379 14.4218 4.03379H13.2708C13.1954 4.03379 13.1372 4.0134 13.0961 3.97261C13.055 3.92502 13.0379 3.87064 13.0447 3.80945C13.0447 3.68709 13.0892 3.54772 13.1783 3.39137C13.2742 3.22821 13.4181 3.06845 13.6099 2.9121C13.8018 2.75574 14.0484 2.62657 14.3499 2.5246C14.6513 2.42263 15.0145 2.37164 15.4392 2.37164C15.8846 2.37164 16.2648 2.42263 16.58 2.5246C16.8951 2.62657 17.1486 2.76933 17.3405 2.95288C17.5392 3.13644 17.6865 3.35398 17.7824 3.60551C17.8783 3.85024 17.9263 4.12217 17.9263 4.42129V7.52126C17.9263 7.59604 17.8989 7.65722 17.844 7.70481C17.7961 7.7524 17.7378 7.77619 17.6693 7.77619H16.4772C16.4018 7.77619 16.3402 7.7524 16.2922 7.70481C16.2443 7.65722 16.2203 7.59604 16.2203 7.52126V7.16435C16.1312 7.29352 16.0113 7.41249 15.8606 7.52126C15.7099 7.63003 15.5317 7.71501 15.3262 7.77619C15.1275 7.84417 14.8946 7.87816 14.6274 7.87816ZM15.1104 6.71568C15.3091 6.71568 15.4872 6.67489 15.6448 6.59331C15.8092 6.50493 15.936 6.37237 16.025 6.19561C16.1209 6.01206 16.1689 5.78433 16.1689 5.5124V5.36964L15.2954 5.52259C14.9734 5.57698 14.737 5.66196 14.5863 5.77753C14.4424 5.8863 14.3704 6.01546 14.3704 6.16502C14.3704 6.28059 14.4047 6.37917 14.4732 6.46074C14.5417 6.54232 14.6308 6.6069 14.7404 6.65449C14.85 6.69528 14.9734 6.71568 15.1104 6.71568ZM20.1959 7.60284C20.5864 7.78639 21.0351 7.87816 21.5421 7.87816C21.9327 7.87816 22.2752 7.83397 22.5698 7.7456C22.8644 7.65722 23.1145 7.54165 23.32 7.39889C23.5324 7.24933 23.7037 7.08957 23.8339 6.91962C23.9641 6.74967 24.06 6.58991 24.1216 6.44035C24.1833 6.28399 24.2176 6.14803 24.2244 6.03246C24.2313 5.96448 24.2073 5.90669 24.1525 5.8591C24.0977 5.80472 24.036 5.77753 23.9675 5.77753H22.6623C22.587 5.77753 22.5287 5.79452 22.4876 5.82851C22.4465 5.8625 22.4088 5.91349 22.3746 5.98147C22.2992 6.19222 22.1999 6.34178 22.0765 6.43015C21.9532 6.51853 21.7854 6.56272 21.573 6.56272C21.2989 6.56272 21.0865 6.47774 20.9358 6.30778C20.7919 6.13783 20.7131 5.8659 20.6994 5.492C20.6926 5.28126 20.6926 5.03992 20.6994 4.768C20.7131 4.4009 20.7919 4.12897 20.9358 3.95222C21.0865 3.77546 21.2989 3.68709 21.573 3.68709C21.7716 3.68709 21.9327 3.73128 22.056 3.81965C22.1862 3.90803 22.2923 4.05759 22.3746 4.26833C22.4088 4.33631 22.4465 4.3873 22.4876 4.42129C22.5287 4.45528 22.587 4.47228 22.6623 4.47228H23.9675C24.036 4.47228 24.0977 4.44848 24.1525 4.4009C24.2073 4.34651 24.2313 4.28533 24.2244 4.21735C24.2176 4.06099 24.1593 3.88084 24.0497 3.67689C23.9469 3.46615 23.7894 3.2622 23.577 3.06505C23.3646 2.86791 23.0905 2.70475 22.7548 2.57559C22.4191 2.43962 22.0149 2.37164 21.5421 2.37164C21.0351 2.37164 20.583 2.46342 20.1856 2.64697C19.7951 2.83052 19.4867 3.09905 19.2607 3.45255C19.0346 3.79926 18.9112 4.22074 18.8907 4.71701C18.8838 4.82578 18.8804 4.96514 18.8804 5.1351C18.8804 5.29826 18.8838 5.43422 18.8907 5.54299C18.9112 6.03246 19.0346 6.45395 19.2607 6.80745C19.4936 7.15416 19.8053 7.41929 20.1959 7.60284ZM1.39766 15.7186C1.84985 15.9089 2.4185 16.0041 3.10363 16.0041C3.70655 16.0041 4.24095 15.9157 4.70683 15.739C5.17272 15.5622 5.53584 15.3073 5.79619 14.9742C6.06339 14.6343 6.19699 14.2332 6.19699 13.7709C6.19699 13.3562 6.10792 13.0129 5.92979 12.741C5.75166 12.4623 5.47075 12.2379 5.08708 12.068C4.70341 11.8912 4.19984 11.7451 3.57637 11.6295C3.19955 11.5479 2.90152 11.4697 2.68228 11.3949C2.46989 11.3202 2.31573 11.2318 2.21982 11.1298C2.13075 11.0278 2.08622 10.9089 2.08622 10.7729C2.08622 10.5554 2.16843 10.3956 2.33286 10.2936C2.50415 10.1849 2.74051 10.1305 3.04197 10.1305C3.32287 10.1305 3.54897 10.1883 3.72025 10.3038C3.89838 10.4126 4.008 10.5418 4.04911 10.6913C4.09022 10.7525 4.13818 10.7967 4.19299 10.8239C4.2478 10.8511 4.31288 10.8647 4.38825 10.8647H5.7448C5.80647 10.8647 5.85785 10.8443 5.89896 10.8035C5.94007 10.7559 5.96062 10.7049 5.96062 10.6505C5.95377 10.433 5.88526 10.2121 5.75508 9.98772C5.63176 9.75658 5.44677 9.53904 5.20013 9.3351C4.95348 9.13115 4.6486 8.968 4.28548 8.84563C3.92921 8.72326 3.51471 8.66208 3.04197 8.66208C2.45961 8.66208 1.95604 8.75385 1.53126 8.9374C1.10648 9.12095 0.774195 9.37589 0.5344 9.7022C0.301457 10.0285 0.184985 10.399 0.184985 10.8137C0.184985 11.2352 0.280903 11.5887 0.472739 11.8742C0.664575 12.1529 0.942052 12.3807 1.30517 12.5574C1.67514 12.7274 2.12047 12.8667 2.64117 12.9755C3.0454 13.0571 3.36741 13.1387 3.6072 13.2203C3.85385 13.295 4.03198 13.3834 4.1416 13.4854C4.25122 13.5806 4.30603 13.7029 4.30603 13.8525C4.30603 14.0632 4.20326 14.2298 3.99773 14.3522C3.79904 14.4745 3.50101 14.5357 3.10363 14.5357C2.86384 14.5357 2.66172 14.5085 2.49729 14.4541C2.33971 14.3929 2.20954 14.3148 2.10677 14.2196C2.01085 14.1244 1.93549 14.0258 1.88068 13.9239C1.83957 13.8695 1.79161 13.8253 1.7368 13.7913C1.68884 13.7573 1.6169 13.7403 1.52099 13.7403H0.226092C0.164431 13.7403 0.109621 13.7641 0.0616616 13.8117C0.0205539 13.8525 0 13.9001 0 13.9545C0.0137026 14.308 0.137026 14.6411 0.36997 14.9538C0.602913 15.2665 0.945478 15.5214 1.39766 15.7186ZM9.84642 15.9021C9.40794 15.9021 9.02769 15.8342 8.70568 15.6982C8.39052 15.5554 8.1473 15.3379 7.97602 15.0456C7.80474 14.7464 7.7191 14.3623 7.7191 13.8933V11.9354H6.9175C6.84213 11.9354 6.77705 11.9116 6.72224 11.864C6.67428 11.8164 6.6503 11.7552 6.6503 11.6805V10.8545C6.6503 10.7797 6.67428 10.7185 6.72224 10.6709C6.77705 10.6234 6.84213 10.5996 6.9175 10.5996H7.7191V8.91701C7.7191 8.84223 7.74308 8.78105 7.79104 8.73346C7.84585 8.68587 7.90751 8.66208 7.97602 8.66208H9.16815C9.24351 8.66208 9.30517 8.68587 9.35313 8.73346C9.40109 8.78105 9.42507 8.84223 9.42507 8.91701V10.5996H10.7097C10.785 10.5996 10.8467 10.6234 10.8947 10.6709C10.9426 10.7185 10.9666 10.7797 10.9666 10.8545V11.6805C10.9666 11.7552 10.9426 11.8164 10.8947 11.864C10.8467 11.9116 10.785 11.9354 10.7097 11.9354H9.42507V13.7505C9.42507 13.9817 9.4696 14.1652 9.55867 14.3012C9.64774 14.4371 9.79846 14.5051 10.0109 14.5051H10.8022C10.8775 14.5051 10.9392 14.5289 10.9872 14.5765C11.0351 14.6241 11.0591 14.6853 11.0591 14.76V15.6472C11.0591 15.722 11.0351 15.7832 10.9872 15.8308C10.9392 15.8783 10.8775 15.9021 10.8022 15.9021H9.84642ZM12.9788 15.7288C13.3762 15.9123 13.8626 16.0041 14.4381 16.0041C15.0205 16.0041 15.5069 15.9123 15.8974 15.7288C16.2948 15.5452 16.5963 15.2835 16.8018 14.9436C17.0142 14.5969 17.1341 14.1856 17.1615 13.7097C17.1684 13.5738 17.1718 13.4208 17.1718 13.2508C17.1718 13.0741 17.1684 12.9211 17.1615 12.792C17.1341 12.3093 17.0108 11.898 16.7915 11.5581C16.5723 11.2182 16.264 10.9565 15.8666 10.7729C15.4761 10.5894 14.9999 10.4976 14.4381 10.4976C13.8832 10.4976 13.407 10.5894 13.0096 10.7729C12.6191 10.9565 12.3142 11.2182 12.095 11.5581C11.8757 11.898 11.7524 12.3093 11.725 12.792C11.7182 12.9211 11.7147 13.0741 11.7147 13.2508C11.7147 13.4208 11.7182 13.5738 11.725 13.7097C11.7524 14.1856 11.8689 14.5969 12.0744 14.9436C12.2868 15.2835 12.5883 15.5452 12.9788 15.7288ZM15.1061 14.4847C14.9691 14.6683 14.7464 14.76 14.4381 14.76C14.1367 14.76 13.914 14.6683 13.7701 14.4847C13.6262 14.3012 13.5475 14.0258 13.5338 13.6587C13.5269 13.5568 13.5235 13.4208 13.5235 13.2508C13.5235 13.0809 13.5269 12.9449 13.5338 12.843C13.5475 12.4827 13.6262 12.2107 13.7701 12.0272C13.914 11.8368 14.1367 11.7417 14.4381 11.7417C14.7464 11.7417 14.9691 11.8368 15.1061 12.0272C15.25 12.2107 15.3322 12.4827 15.3528 12.843C15.3596 12.9449 15.363 13.0809 15.363 13.2508C15.363 13.4208 15.3596 13.5568 15.3528 13.6587C15.3322 14.0258 15.25 14.3012 15.1061 14.4847ZM18.4395 15.9021C18.3641 15.9021 18.3024 15.8783 18.2545 15.8308C18.2065 15.7832 18.1825 15.722 18.1825 15.6472V10.8545C18.1825 10.7865 18.2065 10.7287 18.2545 10.6811C18.3024 10.6267 18.3641 10.5996 18.4395 10.5996H19.6213C19.6967 10.5996 19.7583 10.6267 19.8063 10.6811C19.8543 10.7287 19.8782 10.7865 19.8782 10.8545V11.2624C20.0632 11.0516 20.2825 10.8885 20.536 10.7729C20.7963 10.6573 21.0875 10.5996 21.4095 10.5996H21.8617C21.9302 10.5996 21.9884 10.6234 22.0364 10.6709C22.0912 10.7185 22.1186 10.7797 22.1186 10.8545V11.9048C22.1186 11.9728 22.0912 12.034 22.0364 12.0884C21.9884 12.1359 21.9302 12.1597 21.8617 12.1597H20.8648C20.5839 12.1597 20.3647 12.2379 20.2071 12.3943C20.0564 12.5438 19.981 12.758 19.981 13.0367V15.6472C19.981 15.722 19.9536 15.7832 19.8988 15.8308C19.8508 15.8783 19.7892 15.9021 19.7138 15.9021H18.4395ZM23.3436 15.3515C23.8232 15.7866 24.4672 16.0041 25.2756 16.0041C25.6936 16.0041 26.0601 15.9531 26.3753 15.8511C26.6904 15.7492 26.9508 15.62 27.1563 15.4637C27.3687 15.3005 27.5297 15.1373 27.6393 14.9742C27.7489 14.811 27.8072 14.6717 27.814 14.5561C27.8209 14.4881 27.8003 14.4371 27.7524 14.4031C27.7113 14.3623 27.6565 14.342 27.5879 14.342H26.3136C26.2314 14.342 26.1697 14.3522 26.1286 14.3725C26.0944 14.3861 26.0464 14.4269 25.9847 14.4949C25.9505 14.5357 25.9025 14.5867 25.8409 14.6479C25.7792 14.7023 25.7004 14.7532 25.6045 14.8008C25.5154 14.8416 25.4024 14.862 25.2654 14.862C25.0804 14.862 24.9228 14.8144 24.7926 14.7193C24.6624 14.6241 24.5665 14.4949 24.5049 14.3318C24.4432 14.1686 24.4089 13.9884 24.4021 13.7913V13.7505V13.7199H27.6907C27.7592 13.7199 27.8175 13.6961 27.8654 13.6485C27.9202 13.601 27.9476 13.5398 27.9476 13.465V13.2203C27.9476 12.6968 27.8483 12.2311 27.6496 11.8232C27.4509 11.4153 27.1529 11.0924 26.7555 10.8545C26.365 10.6166 25.8683 10.4976 25.2654 10.4976C24.7378 10.4976 24.2753 10.5996 23.878 10.8035C23.4874 11.0007 23.1791 11.293 22.953 11.6805C22.7338 12.0612 22.6139 12.52 22.5933 13.0571V13.2305V13.414C22.6139 14.2706 22.864 14.9164 23.3436 15.3515ZM26.1389 12.7104H24.4021V12.69C24.4021 12.4725 24.4363 12.2821 24.5049 12.1189C24.5734 11.9558 24.6693 11.83 24.7926 11.7417C24.9228 11.6533 25.0804 11.6091 25.2654 11.6091C25.4503 11.6091 25.6079 11.6533 25.7381 11.7417C25.8751 11.83 25.9745 11.9558 26.0361 12.1189C26.1046 12.2821 26.1389 12.4725 26.1389 12.69V12.7104ZM31.9548 16.9473C31.9548 17.9153 31.164 18.7 30.1885 18.7C29.3226 18.7 28.6023 18.0818 28.4513 17.266H0.318664C0.14267 17.266 0 17.1233 0 16.9473C0 16.7713 0.142671 16.6286 0.318665 16.6286H28.4513C28.6023 15.8128 29.3226 15.1947 30.1885 15.1947C31.164 15.1947 31.9548 15.9794 31.9548 16.9473Z" fill="black"/>
</svg>
